<svg
  xmlns="http://www.w3.org/2000/svg"
  xml:space="preserve"
  width="17.980305mm"
  height="12.842752mm"
  viewBox="0 0 17.980305 12.842752"
>
<style>
  #q { fill: #171717; }
  @media (prefers-color-scheme: dark) { #q { fill: #faf8f6; } }
</style>
<g style="display:inline"><g style="stroke-width:.778679"><path
        d="m-148.42996 85.374945-1.97636-2.277099 1.95918-2.173799.75604.653039-1.68408 1.795842.0434-.592857 1.72707 1.907442z"
        style="fill:#ffc918"
        transform="matrix(1.28424 0 0 1.2842 203.6869532 -100.7389269)"
      /><path
        id="q"
        d="M-153.61135 85.314848q-.56711 0-1.02244-.283553-.44684-.283552-.71323-.764818-.2577-.489755-.2577-1.108402 0-.610024.2577-1.09979.26639-.489755.71323-.773308.45532-.292136 1.02244-.292136.44683 0 .79905.189035.36091.180546.56711.506924.21489.326566.23215.738972v1.46071q-.0179.412311-.23215.738879-.2062.317887-.56711.506922-.35222.180546-.79905.180546zm.2062-1.022553q.47268 0 .76482-.317889.30072-.317888.30072-.816322 0-.33515-.13753-.592856-.12886-.257801-.36949-.403728-.24063-.146209-.55852-.146209-.3178 0-.55852.146209-.23195.145927-.37798.403728-.13753.2578-.13753.592856 0 .326567.13753.584274.13744.2578.37798.403916.24063.146021.55852.146021m1.00537 2.672261V84.18926l.18036-1.005367-.18036-1.005253v-1.09978h1.09981v5.885696z"
        transform="matrix(1.28424 0 0 1.2842 203.6869532 -100.7389269)"
      /></g><path
      d="M19.371906-154.48669c-1.074388 0-1.939416.86502-1.939416 1.93941v.68161l1.285193-.46767v-.23616c0-.0877.01766-.17123.04961-.24701.03195-.0758.07818-.14381.135392-.20102.05721-.0572.125237-.10344.201021-.1354.07578-.0319.159353-.0496.247014-.0496h1.754931l3.52795-1.28416z"
      style="fill:#171717"
      transform="translate(-17.4324898 154.4867121)"
    /><path
      d="m75.986545-136.74447-3.754882-.00009 1.673376.60906 2.89126 1.05233 3.754397-.00008zm-6.296607-.00022-1.367816.00039-.604641 1.66124 1.36764.00009z"
      style="fill:#784d18"
      transform="rotate(-20 429.35259595 126.67563729)"
    /><path
      d="m80.551182-135.08307-3.754397.00008.430726.15677 3.322959 1.20946.810465.29499 3.469938.00031c-.0084-.007-.01659-.0137-.02512-.0201-.01257-.01-.02576-.0188-.03862-.0284-.01306-.009-.02643-.018-.03946-.0276-.01322-.009-.02626-.018-.03982-.0266-.01335-.009-.02689-.0174-.04066-.0258-.01383-.008-.02802-.0169-.04198-.0252-.01396-.008-.02843-.0154-.04251-.0237-.01443-.007-.02813-.0158-.04269-.0232-.01455-.007-.02952-.0147-.04419-.0221-.01467-.007-.02959-.0141-.04472-.0207-.01513-.007-.03033-.0133-.04556-.0199-.01529-.006-.03057-.0123-.04591-.0189-.01553-.006-.03163-.0121-.04741-.0178zm-11.466061.0001-1.36764-.00009-.60464 1.66124 1.367639.00009.51998-1.42863z"
      style="fill:#e22016"
      transform="rotate(-20 429.35259595 126.67563729)"
    /><path
      d="m84.830873-133.42146-3.469452-.00014 2.511521.91412c.0103.004.02025.008.03024.0121.01.004.02038.008.03006.0126.0097.005.01902.009.02821.0147.0092.005.01849.0112.0275.0166.009.005.01753.0114.02635.0168.0085.006.01703.0118.02534.018.0083.006.01655.0122.02432.0193.0077.007.01588.0133.0233.0206.0076.007.01473.0141.0218.0217.0073.007.01421.0148.02097.0225.0067.008.01324.0152.01964.0231.0065.008.01263.0162.01862.0244.0058.009.01175.0165.0173.025.0056.008.01086.0168.01597.0256.0053.008.01025.0179.01496.0269.0047.009.009.0177.01333.0268.0044.009.0085.0188.01231.0281.004.009.0073.0186.01068.0281.0033.01.0064.019.0094.0287.003.01.0056.0195.008.0293.0026.009.0047.02.0067.0299.0019.0103.0041.0199.0056.0301.0015.0101.0027.0204.0037.0305.0011.01.0015.0202.0021.0305.000681.01.000805.0208.000786.0311-.000131.0106-.000247.0206-.000848.031-.000507.0105-.0011.0212-.0022.0317-.001.0104-.0025.0205-.0041.0309-.0015.0104-.0031.0207-.0053.0311-.002.01-.004.0199-.0064.0296l1.292937-.00014c.0012-.016.0023-.0319.0031-.0478.000782-.0159.0014-.0313.0018-.0472.000338-.0158.000354-.032.000323-.0477.000022-.0159.000099-.0317-.000339-.0474-.000423-.0158-.0012-.0317-.002-.0475-.000773-.0157-.0017-.0309-.0028-.0467-.0012-.0157-.0027-.0316-.0043-.0472s-.0032-.0309-.0051-.0464-.0038-.0313-.0061-.0468c-.0023-.0154-.0047-.0308-.0074-.0461-.0027-.0154-.0055-.0307-.0086-.046s-.0063-.0306-.0097-.0459c-.0034-.0152-.0073-.0302-.01102-.0452-.0038-.0151-.0075-.03-.01169-.045-.0041-.015-.0084-.0299-.01283-.0448-.0045-.0148-.0092-.0299-.01398-.0447-.0048-.0147-.0101-.0295-.01531-.0441-.0052-.0147-.01043-.0293-.01597-.0438-.0055-.0145-.01095-.0286-.01681-.043-.0059-.0144-.01223-.0288-.01844-.043-.0062-.0142-.01226-.0279-.0188-.042-.0066-.014-.01355-.0282-.02043-.0421-.0069-.0139-.01405-.0276-.02127-.0413-.0072-.0137-.01438-.0275-.02193-.041-.0075-.0136-.01536-.0271-.02326-.0404-.0078-.0135-.01574-.0269-.02392-.04-.008-.0136-.01642-.0258-.02493-.0388-.0086-.0127-.01725-.0259-.02608-.0386-.0088-.0128-.01757-.0258-.02674-.0383-.009-.0129-.0188-.0248-.02824-.0372-.0096-.012-.01916-.0248-.02891-.0369-.0098-.0121-.01969-.0242-.02975-.0361-.01-.0122-.0202-.0237-.03059-.0353-.01052-.0113-.02061-.0235-.03125-.035-.01071-.0113-.02179-.0227-.03275-.0339-.01089-.0114-.02186-.0219-.0331-.0329-.01141-.0105-.02274-.022-.03425-.0328-.01158-.0106-.02323-.0216-.03509-.032-.01175-.0107-.02398-.0206-.03611-.0307-.01226-.01-.02405-.0199-.03646-.0298-.0041-.003-.0084-.006-.01249-.01zm-16.350393-.00027-1.367816.00039-.604641 1.66124 1.36764.00009.354548-.97411z"
      style="fill:#f28917"
      transform="rotate(-20 429.35259595 126.67563729)"
    /><path
      d="m85.564291-131.76044-1.293423-.00003c-.000168.00068-.000051.001-.000221.002-.0026.0104-.0058.0205-.009.0308s-.0064.0206-.01016.031L83.67-130.09905l1.36764.00009.41358-1.1363c.0057-.0158.01134-.0314.01666-.0473.0053-.0158.01037-.0319.0152-.0478.0049-.0159.0095-.0318.01405-.0477.0045-.0159.0088-.0317.01291-.0475.0041-.0159.0078-.0322.01145-.0481.0036-.0159.0069-.0315.01013-.0475.0033-.016.0063-.0319.0092-.0478.0028-.016.0051-.0319.0075-.0479.0024-.0159.0051-.0321.007-.048.002-.016.0036-.0317.0052-.0476.0015-.0159.0026-.0322.0038-.0481zm-17.688451-.00005-1.367817.00039-.60464 1.66123 1.367639.0001.189116-.51959z"
      style="fill:#efe524"
      transform="rotate(-20 429.35259595 126.67563729)"
    /><path
      d="m85.03762-130.09888-1.36764-.00009-.188762.51862-.416055 1.1431 1.367816-.00039zm-17.766598.00011-1.367639-.0001-.413581 1.13631c-.0057.0158-.01134.0314-.01666.0473-.0053.0158-.01037.0319-.0152.0478-.0049.0159-.0095.0318-.01405.0477-.0045.0159-.0088.0317-.01291.0475-.0041.0159-.0076.0317-.01127.0476-.0036.0159-.007.032-.0103.0479-.0033.016-.0063.0319-.0092.0478-.0028.016-.0051.0319-.0075.0478-.0024.016-.0046.0323-.0065.0482-.002.016-.0036.0317-.0052.0476-.0015.0158-.003.0317-.0041.0475l1.293423.00002c.000171-.00068.000049-.001.000222-.002.0026-.0104.006-.021.0092-.0313s.0064-.0206.01016-.0309z"
      style="fill:#78b82a"
      transform="rotate(-20 429.35259595 126.67563729)"
    /><path
      d="m84.432979-128.43764-1.367816.00039-.354195.97314-.250446.6881 1.36764.00009zm-17.762845.00037-1.293423-.00003c-.0012.0159-.0021.0315-.0029.0473-.000783.0159-.0016.0318-.002.0477-.000338.0158-.000355.032-.000323.0477-.000022.0159-.000055.0316.000339.0474.000422.0158.0014.0312.0021.047.000773.0157.0015.0314.0026.0472.0012.0157.0027.0316.0043.0472s.0032.0309.0051.0464.0042.0315.0066.0469c.0023.0154.0047.0308.0074.0461s.0055.0307.0086.046.0063.0306.0097.0459c.0034.0152.0068.03.01054.0451.0038.0151.008.0302.01217.0451.0041.015.0084.0299.01283.0448.0045.0148.0087.0298.0135.0445.0048.0148.0101.0295.01531.0441.0052.0147.01043.0293.01597.0437.0055.0145.01144.0288.01729.0431.0059.0144.01174.0286.01796.0428.0062.0142.01274.0281.01928.0422.0065.0141.01306.028.01994.0419.0069.0139.01405.0276.02127.0413.0072.0137.01438.0275.02193.041.0076.0135.01536.0271.02326.0404.0078.0135.01574.0268.02392.0401.008.0136.01691.0259.02542.0389.0086.0127.01725.0258.02608.0386.0088.0128.01761.0258.02674.0383.009.0129.01828.0248.02776.037.0096.012.01915.0247.02891.0369.0098.0121.01969.0242.02975.0361.01.0122.02021.0237.03059.0353.01052.0113.02126.0232.03191.0347.01071.0113.02113.023.03209.0342.01089.0114.02235.0221.03359.0331.01141.0105.02222.0219.03376.0326.01158.0106.02341.0212.03527.0315.01175.0107.0238.0211.03593.0312.01226.01.02453.0201.03695.0299.0039.003.008.006.01201.009l3.472719.00023-2.514435-.91518c-.0103-.004-.02042-.007-.03042-.0116-.01-.004-.0202-.008-.02989-.0131-.0097-.005-.01902-.009-.02821-.0147-.0092-.005-.01866-.0107-.02768-.0161-.009-.005-.01735-.0119-.02618-.0172-.0085-.006-.01702-.0118-.02534-.018-.0083-.006-.01655-.0122-.02432-.0193-.0077-.007-.01588-.0133-.0233-.0206-.0076-.007-.01492-.0136-.02198-.0212-.0073-.007-.01421-.0148-.02096-.0225-.0067-.008-.01307-.0157-.01946-.0236-.0065-.008-.01267-.0161-.01862-.0244-.0058-.009-.01175-.0165-.0173-.025-.0056-.008-.01085-.0168-.01597-.0256-.0053-.008-.01024-.0179-.01496-.0269-.0047-.009-.009-.0177-.01333-.0269-.0044-.009-.0085-.0188-.01231-.0281-.004-.009-.0073-.0186-.01068-.0281-.0033-.01-.0064-.019-.0094-.0287-.003-.01-.0056-.0195-.008-.0293-.0026-.009-.0047-.0199-.0067-.0299-.0019-.0103-.0041-.0199-.0056-.0301-.0015-.0101-.0027-.0204-.0037-.0305-.0011-.01-.0016-.0203-.0021-.0305-.000681-.01-.000805-.0208-.000786-.0311.000131-.0106.000281-.0207.000848-.031.000507-.0105.000951-.0207.002-.0312.001-.0104.0027-.021.0043-.0314.0015-.0104.0032-.0207.0053-.0311.0019-.01.0042-.0189.0065-.0284z"
      style="fill:#2c58a4"
      transform="rotate(-20 429.35259595 126.67563729)"
    /><path
      d="m83.828339-126.7764-1.367817.00039-.519626 1.42766-.08501.23357 1.367639.0001zm-14.24549.00034-3.472719-.00023c.0085.007.01695.0138.0256.0203.01257.01.02528.0186.03814.0282.01307.009.02643.018.03946.0276.01322.009.02626.018.03982.0266.01336.009.02738.0176.04114.026.01383.008.02771.0162.04167.0245.01396.008.02825.0159.04233.0242.01443.007.02861.016.04317.0234.01455.007.02903.0145.0437.022.01467.007.02959.0141.04472.0207.01512.007.03033.0133.04556.0199.01529.006.03106.0124.0464.0191.01553.006.03115.0119.04693.0176l3.740574 1.36145 3.757664.00001-.433154-.15766-3.322959-1.20945z"
      style="fill:#6d2380"
      transform="rotate(-20 429.35259595 126.67563729)"
    /><path
      d="m83.223521-125.11468-1.367639-.0001-.604817 1.66173 1.367816-.0004zm-9.076036.00002-3.757664-.00001 4.564636 1.66139 3.757664.00001-1.675804-.60995z"
      style="fill:#5bcefa"
      transform="rotate(-20 429.35259595 126.67563729)"
    /><path
      d="m35.412787-144.26613-1.285192.46767v.23616c0 .0877-.01766.17123-.04961.24702-.03195.0758-.07818.1438-.135392.20102-.05721.0572-.125755.10344-.201538.13539-.07578.032-.158836.0496-.246497.0496h-1.754415l-3.53105 1.28519h5.264278c1.074389 0 1.939416-.86502 1.939416-1.93941z"
      style="fill:#f5a9b8"
      transform="translate(-17.4324898 154.4867121)"
    /></g></svg>
