<?xml version="1.0" encoding="UTF-8" standalone="no"?>
<!-- Created with Inkscape (http://www.inkscape.org/) -->

<svg
   width="32mm"
   height="31.999994mm"
   viewBox="0 0 32.000001 31.999994"
   version="1.1"
   id="svg1"
   xml:space="preserve"
   xmlns:xlink="http://www.w3.org/1999/xlink"
   xmlns="http://www.w3.org/2000/svg"
   xmlns:svg="http://www.w3.org/2000/svg"><defs
     id="defs1"><color-profile
       name="ISO-Coated-v2-ECI"
       xlink:href="file:///usr/share/color/icc/colord/ISOCoatedV2.icc"
       id="color-profile2" /></defs><g
     id="layer4"
     transform="translate(314.70696,-120.50216)"><g
       id="g2"
       transform="matrix(0.96250032,0,0,0.96250032,-11.80141,4.518792)"
       style="stroke-width:1.03896"><circle
         style="font-variation-settings:'wght' 500;fill:#e9ebe9;fill-opacity:1;stroke-width:1.03896;stroke-linecap:round;paint-order:markers fill stroke"
         id="path23"
         cx="-298.08362"
         cy="137.12553"
         r="16.623371" /><g
         id="g4"
         transform="matrix(1.0994282,0,0,1.0994282,20.147672,-24.471136)"
         style="stroke-width:0.945"><path
           d="m -285.38412,146.46045 c 0,0 -0.92811,-1.33177 -0.86134,-1.84508 0.0665,-0.51489 0.2463,-0.62613 0.76119,-0.80577 0.51489,-0.17953 0.81687,-0.45933 0.81687,-0.45933 0,0 0.37341,-1.75291 0.33536,-1.96904 -0.0444,-0.25739 -0.97258,-1.99129 -3.17681,-1.99129 -2.12477,0 -2.99723,1.7831 -2.88599,3.1546 0.10039,1.24117 0.55937,1.58921 0.88364,2.61742 0.32415,1.02978 0.4815,1.64485 0.4815,1.64485 l 1.9134,0.39092 1.60032,-0.34645 z"
           fill="url(#IconifyId17ecdb2904d178eab7809)"
           id="path4-4-6-0-8-5-9-8"
           style="fill:#24a13b;fill-opacity:1;stroke-width:0.150181" /><path
           d="m -295.36745,147.38856 c 0,0 -0.76282,-0.14941 -0.76597,-0.66746 -0.002,-0.51816 0.27653,-0.2924 0.27968,-0.66909 0.003,-0.37668 -0.67388,-0.46563 -1.11885,-0.14941 -0.35123,0.24957 -1.15374,1.06165 -1.10927,2.74776 0.0607,2.29006 1.25865,3.96509 3.14502,5.00125 1.53835,0.84383 3.80773,0.74379 3.80773,0.74379 z"
           fill="#5e6367"
           id="path7-6-8-32-6-9-3-7-8"
           style="fill:#958988;fill-opacity:1;stroke-width:0.150181" /><path
           d="m -293.30308,147.57926 c -0.37341,-0.0444 -2.01193,-0.56263 -2.59517,-0.41322 -0.70399,0.17953 -1.40644,0.67539 -1.26341,2.24874 0.18431,2.04215 1.63528,3.28649 2.25984,3.62818 1.11721,0.61026 2.1915,0.6245 2.1915,0.6245 0,0 -0.22085,-6.04379 -0.59275,-6.08828 z"
           fill="#b0b0b1"
           id="path8-3-8-0-3-7-8-36-3"
           style="fill:#553832;fill-opacity:1;stroke-width:0.150181" /><path
           d="m -280.81993,142.71308 c 0,0.19074 -1.18554,0.7501 -2.30433,0.88364 -1.11884,0.13342 -1.81169,-0.0444 -1.81169,-0.0444 0,0 0.19074,-0.48151 0.19074,-0.83916 0,-0.35754 -0.18432,-1.25548 0.10038,-1.46526 0.25751,-0.19074 0.47042,0.20182 0.62614,0.31306 0.15735,0.11089 0.60395,0.42431 1.29839,0.44812 0.69442,0.0233 1.29837,-0.0887 1.5431,0.0444 0.24478,0.13354 0.35754,0.4577 0.35754,0.65952 z"
           fill="#ffbf18"
           id="path9-1-8-6-2-3-6-1-1"
           style="fill:#ffc918;fill-opacity:1;stroke-width:0.150181" /><path
           d="m -284.95821,146.92928 c 0,0 -0.3433,1.49862 -2.05801,1.24594 -1.22526,-0.18117 -2.1327,-0.78979 -2.1327,-0.78979 l -0.014,-0.99967 c 0,0 0.81371,0.47672 1.78943,0.46248 1.0139,-0.014 1.89434,-0.53718 1.89434,-0.53718 z"
           fill="#ffffff"
           id="path12-7-4-1-6-73-2-8"
           style="fill:#958988;fill-opacity:1;stroke-width:0.150181" /><path
           d="m -283.82511,149.71199 c 0.11918,3.24993 -2.33134,4.79465 -6.22011,4.8614 -4.30992,0.0747 -5.97698,-2.45374 -6.23443,-4.04137 -0.26859,-1.66074 0.80566,-2.01354 0.80566,-2.01354 0,0 -1.07425,-0.44812 -0.59275,-1.50975 0.22412,-0.0444 1.32699,0.24945 3.42314,0.0339 2.08185,-0.21455 3.50897,0.14941 3.50897,0.14941 0,0 0.52119,0.5673 2.0135,0.49259 1.78786,-0.0887 2.13271,-0.78978 2.13271,-0.78978 0,0 1.08862,0.7962 1.16332,2.81767 z"
           fill="#84574e"
           id="path13-9-6-7-5-1-6-9-9"
           style="stroke-width:0.150181" /><path
           d="m -287.95703,150.35244 c -0.36232,1.25548 -1.65594,2.01353 -3.57887,1.92454 -1.74494,-0.0805 -3.01313,-1.29839 -3.2213,-2.37112 -0.22727,-1.16647 0.24629,-1.61145 0.24629,-1.61145 0,0 -1.00748,-0.36548 -1.00748,-1.07426 0.5673,-0.3433 2.37108,-0.58166 4.37029,-0.65636 1.29679,-0.0479 2.02782,0.43224 2.02782,0.43224 0,0 1.83553,1.02979 1.16332,3.35643 z"
           fill="#b79277"
           id="path14-62-4-6-5-2-0-3-6"
           style="fill:#5f7ad9;fill-opacity:1;stroke-width:0.150181" /><path
           id="path21-6-6-47-4"
           style="fill:#2d2b33;fill-opacity:1;stroke-width:0.150173"
           d="m -287.65287,142.07915 c 0.004,0.0117 0.008,0.0233 0.0117,0.035 0.1242,0.0432 0.25155,0.10388 0.37879,0.17976 0.0934,0.0549 0.17591,0.10972 0.24851,0.1647 0.0315,-0.007 0.063,-0.0163 0.0922,-0.028 0.0397,-0.0163 0.0747,-0.0362 0.10623,-0.0584 0.18875,-0.14031 0.2645,-0.40668 0.18816,-0.66769 -0.0794,-0.27489 -0.28446,-0.46107 -0.63092,-0.40224 -0.39734,0.0665 -0.47193,0.45757 -0.40831,0.72617 0.004,0.0163 0.008,0.0339 0.0128,0.049 z" /></g></g></g></svg>
